<svg xmlns="http://www.w3.org/2000/svg" viewBox="0 0 1200 675" role="img" aria-label="Ticket intake and invoice workflow">
  <defs><linearGradient id="bg" x1="0" y1="0" x2="1" y2="1"><stop offset="0%" stop-color="#0a1628"/><stop offset="100%" stop-color="#08111f"/></linearGradient></defs>
  <rect width="1200" height="675" fill="url(#bg)"/>
  <rect x="40" y="40" width="1120" height="595" rx="16" fill="#0f1d33" stroke="#1e3a5f"/>
  <text x="70" y="88" fill="#38bdf8" font-size="13" font-weight="700" letter-spacing="1.2">VENDOR PORTAL WORKFLOW</text>
  <text x="70" y="124" fill="#f1f5f9" font-size="28" font-weight="600">Ticket #1042 - mobile closeout</text>
  <rect x="70" y="160" width="340" height="400" rx="12" fill="#122238" stroke="#1e3a5f"/>
  <text x="100" y="200" fill="#94a3b8" font-size="13">PORTAL INTAKE</text>
  <text x="100" y="232" fill="#e2e8f0" font-size="16">HVAC filter replacement</text>
  <text x="100" y="260" fill="#94a3b8" font-size="14">Unit 4B · assigned to field tech</text>
  <rect x="100" y="284" width="280" height="48" rx="8" fill="#1a2f4d"/><text x="120" y="314" fill="#7dd3fc" font-size="13">Status: On site</text>
  <text x="100" y="360" fill="#94a3b8" font-size="13">REQUIRED PHOTOS</text>
  <rect x="100" y="378" width="84" height="64" rx="6" fill="#1e3a5f"/><rect x="194" y="378" width="84" height="64" rx="6" fill="#1e3a5f"/><rect x="288" y="378" width="84" height="64" rx="6" fill="#1e3a5f"/>
  <text x="100" y="470" fill="#94a3b8" font-size="13">PDF PROOF PACKET</text>
  <rect x="100" y="488" width="280" height="48" rx="8" fill="#14532d"/><text x="240" y="518" text-anchor="middle" fill="#bbf7d0" font-size="13">Generate completion PDF</text>
  <rect x="440" y="160" width="360" height="400" rx="12" fill="#122238" stroke="#1e3a5f"/>
  <text x="470" y="200" fill="#94a3b8" font-size="13">MOBILE JOB FLOW</text>
  <text x="470" y="240" fill="#e2e8f0" font-size="16">1. Arrive · 2. Photos · 3. Notes</text>
  <text x="470" y="280" fill="#e2e8f0" font-size="16">4. Customer sign-off</text>
  <text x="470" y="320" fill="#e2e8f0" font-size="16">5. Mark complete</text>
  <rect x="470" y="360" width="300" height="44" rx="22" fill="#3b82f6"/><text x="620" y="388" text-anchor="middle" fill="#fff" font-size="14" font-weight="700">Complete job</text>
  <rect x="830" y="160" width="300" height="400" rx="12" fill="#122238" stroke="#1e3a5f"/>
  <text x="860" y="200" fill="#94a3b8" font-size="13">STRIPE INVOICE</text>
  <text x="860" y="240" fill="#f1f5f9" font-size="22" font-weight="600">$185.00</text>
  <text x="860" y="272" fill="#94a3b8" font-size="14">Triggered on completion</text>
  <rect x="860" y="300" width="240" height="48" rx="24" fill="#22d3ee"/><text x="980" y="330" text-anchor="middle" fill="#08111f" font-size="14" font-weight="700">Send invoice</text>
  <text x="860" y="390" fill="#4ade80" font-size="13">Paid status syncs to ticket</text>
</svg>