<svg xmlns="http://www.w3.org/2000/svg" viewBox="0 0 1200 675" role="img" aria-label="Roofing contractor lead and trust page">
  <defs><linearGradient id="bg" x1="0" y1="0" x2="1" y2="1"><stop offset="0%" stop-color="#0a1628"/><stop offset="100%" stop-color="#08111f"/></linearGradient></defs>
  <rect width="1200" height="675" fill="url(#bg)"/>
  <rect x="40" y="40" width="1120" height="595" rx="16" fill="#0f1d33" stroke="#1e3a5f"/>
  <text x="70" y="88" fill="#38bdf8" font-size="13" font-weight="700">ROOFING GROWTH SYSTEM</text>
  <text x="70" y="124" fill="#f1f5f9" font-size="28" font-weight="600">Storm-season lead capture</text>
  <rect x="70" y="160" width="640" height="380" rx="12" fill="#122238" stroke="#1e3a5f"/>
  <text x="100" y="200" fill="#e2e8f0" font-size="24" font-weight="600">Free roof inspection</text>
  <text x="100" y="232" fill="#94a3b8" font-size="15">Licensed · insured · local service areas</text>
  <rect x="100" y="260" width="280" height="44" rx="8" fill="#1a2f4d"/><text x="120" y="288" fill="#94a3b8" font-size="14">Name</text>
  <rect x="100" y="316" width="280" height="44" rx="8" fill="#1a2f4d"/><text x="120" y="344" fill="#94a3b8" font-size="14">Address / ZIP</text>
  <rect x="100" y="372" width="280" height="44" rx="8" fill="#1a2f4d"/><text x="120" y="400" fill="#94a3b8" font-size="14">Phone</text>
  <rect x="100" y="440" width="220" height="48" rx="24" fill="#3b82f6"/><text x="210" y="470" text-anchor="middle" fill="#fff" font-size="15" font-weight="700">Request estimate</text>
  <rect x="740" y="160" width="390" height="180" rx="12" fill="#122238" stroke="#1e3a5f"/>
  <text x="770" y="200" fill="#94a3b8" font-size="13">TRUST PAGES</text>
  <text x="770" y="232" fill="#e2e8f0" font-size="15">Insurance claims FAQ</text>
  <text x="770" y="260" fill="#e2e8f0" font-size="15">Storm damage process</text>
  <text x="770" y="288" fill="#e2e8f0" font-size="15">Project photo gallery</text>
  <rect x="740" y="360" width="390" height="180" rx="12" fill="#122238" stroke="#1e3a5f"/>
  <text x="770" y="400" fill="#94a3b8" font-size="13">LOCAL SEO SILOS</text>
  <text x="770" y="432" fill="#e2e8f0" font-size="15">Tampa · St Pete · Clearwater</text>
  <text x="770" y="460" fill="#e2e8f0" font-size="15">Repair · replacement · inspection</text>
  <text x="600" y="640" text-anchor="middle" fill="#64748b" font-size="11">Fictional roofing UI pattern - client preview</text>
</svg>