<svg xmlns="http://www.w3.org/2000/svg" viewBox="0 0 1200 675" role="img" aria-label="Knight Command admin operations shell">
  <defs><linearGradient id="bg" x1="0" y1="0" x2="1" y2="1"><stop offset="0%" stop-color="#0a1628"/><stop offset="100%" stop-color="#08111f"/></linearGradient></defs>
  <rect width="1200" height="675" fill="url(#bg)"/>
  <rect x="40" y="40" width="1120" height="595" rx="16" fill="#0f1d33" stroke="#1e3a5f"/>
  <text x="70" y="82" fill="#64ffda" font-size="14" font-weight="700">KNIGHT COMMAND · /admin</text>
  <rect x="70" y="100" width="1060" height="48" rx="8" fill="#13243d"/>
  <rect x="86" y="112" width="120" height="24" rx="6" fill="#2563eb"/><text x="146" y="129" text-anchor="middle" fill="#fff" font-size="11">Command</text>
  <rect x="214" y="112" width="100" height="24" rx="6" fill="#1e3a5f"/><text x="264" y="129" text-anchor="middle" fill="#7dd3fc" font-size="11">Referrals</text>
  <rect x="322" y="112" width="100" height="24" rx="6" fill="#1e3a5f"/><text x="372" y="129" text-anchor="middle" fill="#7dd3fc" font-size="11">Outreach</text>
  <rect x="430" y="112" width="100" height="24" rx="6" fill="#1e3a5f"/><text x="480" y="129" text-anchor="middle" fill="#7dd3fc" font-size="11">Email</text>
  <rect x="538" y="112" width="100" height="24" rx="6" fill="#1e3a5f"/><text x="588" y="129" text-anchor="middle" fill="#7dd3fc" font-size="11">Social</text>
  <rect x="646" y="112" width="80" height="24" rx="6" fill="#1e3a5f"/><text x="686" y="129" text-anchor="middle" fill="#7dd3fc" font-size="11">Logs</text>
  <rect x="70" y="168" width="680" height="392" rx="12" fill="#122238" stroke="#1e3a5f"/>
  <text x="100" y="208" fill="#94a3b8" font-size="13">EMBEDDED SERVICE</text>
  <text x="100" y="242" fill="#f1f5f9" font-size="22" font-weight="600">Outreach CRM · port 5050</text>
  <rect x="100" y="268" width="620" height="240" rx="8" fill="#0a1628" stroke="#1e3a5f"/>
  <text x="130" y="310" fill="#e2e8f0" font-size="15">Queue depth · reply rate · brand switcher</text>
  <text x="130" y="340" fill="#94a3b8" font-size="13">One login · fewer tabs · daily ops</text>
  <rect x="770" y="168" width="360" height="180" rx="12" fill="#122238" stroke="#1e3a5f"/>
  <text x="800" y="208" fill="#94a3b8" font-size="13">PORTS WIRED</text>
  <text x="800" y="240" fill="#e2e8f0" font-size="15">5050 Referrals</text>
  <text x="800" y="268" fill="#e2e8f0" font-size="15">5100 Email-Agent</text>
  <text x="800" y="296" fill="#e2e8f0" font-size="15">8500 Social Ops</text>
  <text x="800" y="324" fill="#e2e8f0" font-size="15">8501 Social Poster</text>
  <rect x="770" y="368" width="360" height="192" rx="12" fill="#122238" stroke="#1e3a5f"/>
  <text x="800" y="408" fill="#94a3b8" font-size="13">TODAY</text>
  <text x="800" y="440" fill="#4ade80" font-size="15">3 referral consults</text>
  <text x="800" y="468" fill="#fbbf24" font-size="15">1 social runner alert</text>
  <text x="800" y="496" fill="#e2e8f0" font-size="15">38 outreach sends queued</text>
</svg>