<svg xmlns="http://www.w3.org/2000/svg" viewBox="0 0 1200 675" role="img" aria-label="Referral network attribution dashboard">
  <defs><linearGradient id="bg" x1="0" y1="0" x2="1" y2="1"><stop offset="0%" stop-color="#0a1628"/><stop offset="100%" stop-color="#08111f"/></linearGradient></defs>
  <rect width="1200" height="675" fill="url(#bg)"/>
  <rect x="40" y="40" width="1120" height="595" rx="16" fill="#0f1d33" stroke="#1e3a5f"/>
  <text x="70" y="88" fill="#38bdf8" font-size="13" font-weight="700">REFERRAL NETWORK</text>
  <text x="70" y="124" fill="#f1f5f9" font-size="28" font-weight="600">Partner attribution</text>
  <rect x="70" y="160" width="280" height="280" rx="12" fill="#122238" stroke="#1e3a5f"/>
  <text x="100" y="200" fill="#94a3b8" font-size="13">QR BROCHURE</text>
  <rect x="130" y="220" width="160" height="160" rx="8" fill="#fff"/><rect x="150" y="240" width="120" height="120" fill="#0a1628"/>
  <text x="210" y="310" text-anchor="middle" fill="#64ffda" font-size="11">SCAN</text>
  <text x="210" y="400" text-anchor="middle" fill="#7dd3fc" font-size="12">/ref/partner-code</text>
  <rect x="380" y="160" width="750" height="280" rx="12" fill="#122238" stroke="#1e3a5f"/>
  <text x="410" y="200" fill="#94a3b8" font-size="13">PARTNER DASHBOARD</text>
  <text x="410" y="236" fill="#e2e8f0" font-size="18" font-weight="600">ABC Plumbing · code PLMB-24</text>
  <text x="410" y="280" fill="#fbbf24" font-size="24" font-weight="700">$1,240 earned</text>
  <text x="410" y="312" fill="#94a3b8" font-size="14">$890 paid · $350 pending settlement</text>
  <rect x="410" y="340" width="200" height="36" rx="6" fill="#1e3a5f"/><text x="510" y="363" text-anchor="middle" fill="#7dd3fc" font-size="12">12 attributed consults</text>
  <rect x="70" y="460" width="1060" height="155" rx="12" fill="#122238" stroke="#1e3a5f"/>
  <text x="100" y="500" fill="#94a3b8" font-size="13">EVENT LOG · NEON POSTGRES</text>
  <text x="100" y="536" fill="#e2e8f0" font-size="15">scan → landing → form submit → consult booked → payout webhook</text>
  <text x="100" y="568" fill="#4ade80" font-size="14">Stripe webhook updates paid status automatically</text>
</svg>