<svg xmlns="http://www.w3.org/2000/svg" viewBox="0 0 1200 675" role="img" aria-label="Knight Logics marketing site and operations platform">
  <defs><linearGradient id="bg" x1="0" y1="0" x2="1" y2="1"><stop offset="0%" stop-color="#0a1628"/><stop offset="100%" stop-color="#08111f"/></linearGradient><linearGradient id="accent" x1="0" y1="0" x2="1" y2="0"><stop offset="0%" stop-color="#3b82f6"/><stop offset="100%" stop-color="#22d3ee"/></linearGradient></defs>
  <rect width="1200" height="675" fill="url(#bg)"/>
  <rect x="40" y="40" width="1120" height="280" rx="16" fill="#0f1d33" stroke="#1e3a5f"/>
  <text x="70" y="88" fill="#64ffda" font-size="13" font-weight="700">KNIGHTLOGICS.COM</text>
  <text x="70" y="128" fill="#f1f5f9" font-size="30" font-weight="600">Growth systems for local business</text>
  <text x="70" y="162" fill="#94a3b8" font-size="15">Marketing site · technical SEO · conversion paths</text>
  <rect x="70" y="190" width="180" height="44" rx="22" fill="url(#accent)"/><text x="160" y="218" text-anchor="middle" fill="#08111f" font-size="14" font-weight="700">Book consult</text>
  <rect x="270" y="190" width="160" height="44" rx="22" fill="#1e3a5f"/><text x="350" y="218" text-anchor="middle" fill="#7dd3fc" font-size="14">Free audit</text>
  <rect x="860" y="100" width="260" height="180" rx="12" fill="#122238" stroke="#1e3a5f"/>
  <text x="890" y="140" fill="#94a3b8" font-size="12">CHECKOUT LAYER</text>
  <text x="890" y="172" fill="#e2e8f0" font-size="16">Stripe-backed pricing</text>
  <text x="890" y="200" fill="#e2e8f0" font-size="16">Secure service checkout</text>
  <text x="890" y="228" fill="#4ade80" font-size="13">Live on knightlogics.com</text>
  <rect x="40" y="340" width="360" height="295" rx="12" fill="#122238" stroke="#1e3a5f"/>
  <text x="70" y="380" fill="#94a3b8" font-size="13">AUTOMATION DEMOS</text>
  <text x="70" y="416" fill="#e2e8f0" font-size="16">CRM · Email-Agent</text>
  <text x="70" y="444" fill="#e2e8f0" font-size="16">Social Poster · Referrals</text>
  <text x="70" y="472" fill="#e2e8f0" font-size="16">Video proof embeds</text>
  <rect x="420" y="340" width="360" height="295" rx="12" fill="#122238" stroke="#1e3a5f"/>
  <text x="450" y="380" fill="#94a3b8" font-size="13">REFERRAL TRACKING</text>
  <text x="450" y="416" fill="#e2e8f0" font-size="16">/ref/:partner paths</text>
  <text x="450" y="444" fill="#e2e8f0" font-size="16">Partner dashboards</text>
  <text x="450" y="472" fill="#e2e8f0" font-size="16">QR brochure attribution</text>
  <rect x="800" y="340" width="360" height="295" rx="12" fill="#122238" stroke="#1e3a5f"/>
  <text x="830" y="380" fill="#94a3b8" font-size="13">TECHNICAL SEO</text>
  <text x="830" y="416" fill="#e2e8f0" font-size="16">Schema · sitemap · GSC</text>
  <text x="830" y="444" fill="#e2e8f0" font-size="16">Growth page architecture</text>
  <text x="830" y="472" fill="#e2e8f0" font-size="16">Lighthouse-first builds</text>
  <text x="830" y="520" fill="#fbbf24" font-size="14">Marketing + ops in one stack</text>
</svg>